<?xml version="1.0" encoding="iso-8859-1"?>
<!-- Generator: Adobe Illustrator 18.0.0, SVG Export Plug-In . SVG Version: 6.00 Build 0)  -->
<!DOCTYPE svg PUBLIC "-//W3C//DTD SVG 1.1//EN" "http://www.w3.org/Graphics/SVG/1.1/DTD/svg11.dtd">
<svg xmlns="http://www.w3.org/2000/svg" xmlns:xlink="http://www.w3.org/1999/xlink" version="1.1" id="Capa_1" x="0px" y="0px" viewBox="0 0 454.021 454.021" style="enable-background:new 0 0 454.021 454.021;" xml:space="preserve" width="512px" height="512px">
<g id="XMLID_521_">
	<path id="XMLID_526_" d="M160.353,231.56h173.55c22.974-53.249,22.429-109.539-3.934-150.809   c9.654-11.63,10.174-27.683,0.738-37.12c-9.437-9.437-25.49-8.917-37.12,0.738C231.824,4.915,136.418,23.271,67.915,91.774   c-68.48,68.48-86.847,163.845-47.444,225.61c-10.254,11.68-11.005,28.214-1.368,37.851c9.637,9.637,26.171,8.885,37.851-1.368   c24.678,15.744,54.722,22.255,86.271,20.042c-17.652-28.269-27.872-61.634-27.872-97.345   C115.35,251.693,135.477,231.558,160.353,231.56z" fill="#91DC5A"/>
	<path id="XMLID_860_" d="M314.688,430.163c36.575-3.544,69.457-19.901,94.08-44.524c2.299-2.299,4.519-4.677,6.67-7.116   l-100.75-100.75V430.163z" fill="#91DC5A"/>
	<path id="XMLID_861_" d="M439.022,261.56C439.021,261.56,439.022,261.56,439.022,261.56h-98.121l92.315,92.316   c13.223-22.749,20.806-49.162,20.806-77.316C454.022,268.276,447.306,261.56,439.022,261.56z" fill="#91DC5A"/>
	<path id="XMLID_862_" d="M284.688,430.162v-152.39L183.939,378.52C209.132,407.085,244.7,426.287,284.688,430.162z" fill="#91DC5A"/>
	<path id="XMLID_871_" d="M160.353,261.56c-8.278,0-15.001,6.717-15,15c0,28.152,7.584,54.566,20.807,77.314l92.314-92.314H160.353z   " fill="#91DC5A"/>
</g>
<g>
</g>
<g>
</g>
<g>
</g>
<g>
</g>
<g>
</g>
<g>
</g>
<g>
</g>
<g>
</g>
<g>
</g>
<g>
</g>
<g>
</g>
<g>
</g>
<g>
</g>
<g>
</g>
<g>
</g>
</svg>
